# xmcd
#
# Track frame offsets:
#	182
#	20200
#	39015
#	66007
#	84582
#	101110
#	118737
#	143612
#	162687
#	175120
#	195577
#
# Disc length: 2956 seconds
#
# Revision: 0
# Processed by: cddbd v1.5.2PL0 Copyright (c) Steve Scherf et al.
# Submitted via: dBpowerAMP V4.0
#
DISCID=920b8a0b
DTITLE=Various Artist - Clássicos Charme
DYEAR=1995
DGENRE=R&B
TTITLE0=Debra Laws - Very Special
TTITLE1=Blue Magic - Side Show
TTITLE2=Chic - A Warm Summer Night
TTITLE3=Spinners - Just As Long As We Have Love
TTITLE4=Tower of Power - So Very Hard To Go
TTITLE5=Stacey Lattisaw - Hey There Lonely Boy
TTITLE6=Major Harris - Love Won't Let Me Wait
TTITLE7=Patti Austin - Smoke Gets In Your Eyes
TTITLE8=Donny Hathaway and Roberta Flack - Where is The Love
TTITLE9=Starpoint - The More We Love
TTITLE10=Curtis Hairston - You're My Shining Star
EXTD=
EXTT0=
EXTT1=
EXTT2=
EXTT3=
EXTT4=
EXTT5=
EXTT6=
EXTT7=
EXTT8=
EXTT9=
EXTT10=
PLAYORDER=
